<?xml version="1.0" encoding="UTF-8" standalone="no"?>
<svg
   xmlns:dc="http://purl.org/dc/elements/1.1/"
   xmlns:cc="http://creativecommons.org/ns#"
   xmlns:rdf="http://www.w3.org/1999/02/22-rdf-syntax-ns#"
   xmlns:svg="http://www.w3.org/2000/svg"
   xmlns="http://www.w3.org/2000/svg"
   xmlns:sodipodi="http://sodipodi.sourceforge.net/DTD/sodipodi-0.dtd"
   xmlns:inkscape="http://www.inkscape.org/namespaces/inkscape"
   inkscape:version="1.0 (4035a4fb49, 2020-05-01)"
   sodipodi:docname="cookie-solid.svg"
   id="svg4"
   version="1.1"
   viewBox="0 0 512 512"
   role="img"
   class="svg-inline--fa fa-cookie fa-w-16"
   data-icon="cookie"
   data-prefix="fas"
   focusable="false"
   aria-hidden="true">
  <metadata
     id="metadata10">
    <rdf:RDF>
      <cc:Work
         rdf:about="">
        <dc:format>image/svg+xml</dc:format>
        <dc:type
           rdf:resource="http://purl.org/dc/dcmitype/StillImage" />
      </cc:Work>
    </rdf:RDF>
  </metadata>
  <defs
     id="defs8" />
  <sodipodi:namedview
     inkscape:current-layer="svg4"
     inkscape:window-maximized="1"
     inkscape:window-y="-11"
     inkscape:window-x="-11"
     inkscape:cy="253.12"
     inkscape:cx="256"
     inkscape:zoom="1.5625"
     showgrid="false"
     id="namedview6"
     inkscape:window-height="986"
     inkscape:window-width="1920"
     inkscape:pageshadow="2"
     inkscape:pageopacity="0"
     guidetolerance="10"
     gridtolerance="10"
     objecttolerance="10"
     borderopacity="1"
     bordercolor="#666666"
     pagecolor="#ffffff" />
  <path
     id="path2"
     d="M510.37 254.79l-12.08-76.26a132.493 132.493 0 0 0-37.16-72.95l-54.76-54.75c-19.73-19.72-45.18-32.7-72.71-37.05l-76.7-12.15c-27.51-4.36-55.69.11-80.52 12.76L107.32 49.6a132.25 132.25 0 0 0-57.79 57.8l-35.1 68.88a132.602 132.602 0 0 0-12.82 80.94l12.08 76.27a132.493 132.493 0 0 0 37.16 72.95l54.76 54.75a132.087 132.087 0 0 0 72.71 37.05l76.7 12.14c27.51 4.36 55.69-.11 80.52-12.75l69.12-35.21a132.302 132.302 0 0 0 57.79-57.8l35.1-68.87c12.71-24.96 17.2-53.3 12.82-80.96zM176 368c-17.67 0-32-14.33-32-32s14.33-32 32-32 32 14.33 32 32-14.33 32-32 32zm32-160c-17.67 0-32-14.33-32-32s14.33-32 32-32 32 14.33 32 32-14.33 32-32 32zm160 128c-17.67 0-32-14.33-32-32s14.33-32 32-32 32 14.33 32 32-14.33 32-32 32z"
     fill="currentColor" />
  <path
     id="path835"
     d="M 262.4,510.99005 C 250.21993,509.67134 171.83381,496.77336 165.13536,494.98573 147.89151,490.38381 132.27245,482.52957 117.12,470.8406 110.54135,465.76566 53.491212,409.24993 44.963497,399.36 30.283654,382.3352 19.800803,361.44616 15.415457,340.48 14.156256,334.45981 2.8410234,263.58478 1.2718575,251.88897 0.34625683,244.98999 0.34702259,228.24173 1.2732791,220.8 2.8119033,208.43839 6.793863,193.95601 11.56748,183.36 16.652401,172.07299 53.102849,101.34258 56.597539,95.981254 63.850509,84.854208 72.629133,74.94656 82.743213,66.472947 94.539264,56.590174 98.913517,54.140214 159.36,23.560912 193.05854,6.5131418 202.23496,3.3144502 224.32,0.91732653 c 13.81724,-1.49973081 21.79108,-0.7042488 70.6352,7.04666767 25.93052,4.1148308 47.38023,7.8415548 51.57219,8.9602768 17.51182,4.673434 33.17717,12.52567 48.35261,24.236678 5.68257,4.38529 58.37909,56.298699 68.9842,67.959051 16.29324,17.91447 26.8423,37.54253 32.16088,59.84 0.67169,2.816 4.28615,24.272 8.03212,47.68 6.58554,41.1521 6.82148,42.97911 7.13213,55.22952 0.45406,17.9056 -1.44694,31.09076 -6.65172,46.13572 -3.27655,9.47118 -4.67991,12.39738 -25.97209,54.15523 -23.0773,45.25877 -26.15513,50.31242 -38.55095,63.29866 -11.81619,12.379 -21.92814,19.4836 -43.85457,30.81195 -49.91428,25.78835 -70.04029,35.59796 -79.04,38.52486 -18.39649,5.98292 -37.10768,8.10097 -54.72,6.19411 z M 183.62044,367.33454 c 10.51713,-2.47906 19.20284,-10.3465 22.85996,-20.70634 2.11191,-5.98257 2.11191,-15.27383 0,-21.2564 -3.67746,-10.41746 -12.28434,-18.21348 -22.85996,-20.70634 -16.30392,-3.8431 -32.55175,4.98696 -38.10084,20.70634 -2.11191,5.98257 -2.11191,15.27383 0,21.2564 5.5492,15.71969 21.79659,24.54952 38.10084,20.70634 z m 192,-32 c 10.51713,-2.47906 19.20284,-10.3465 22.85996,-20.70634 2.11191,-5.98257 2.11191,-15.27383 0,-21.2564 -3.67746,-10.41746 -12.28434,-18.21348 -22.85996,-20.70634 -16.30392,-3.8431 -32.55175,4.98696 -38.10084,20.70634 -2.11191,5.98257 -2.11191,15.27383 0,21.2564 5.5492,15.71969 21.79659,24.54952 38.10084,20.70634 z m -160,-128 c 10.51713,-2.47906 19.20284,-10.3465 22.85996,-20.70634 2.11191,-5.98257 2.11191,-15.27383 0,-21.2564 -5.55902,-15.74751 -21.76775,-24.55632 -38.10084,-20.70634 -10.51713,2.47906 -19.20284,10.3465 -22.85996,20.70634 -2.11191,5.98257 -2.11191,15.27383 0,21.2564 5.5492,15.71969 21.79659,24.54952 38.10084,20.70634 z"
     style="fill:#8C8C8C;stroke-width:0.64" />
</svg>
