<?xml version="1.0" encoding="UTF-8" standalone="no"?>
<svg
   xmlns:dc="http://purl.org/dc/elements/1.1/"
   xmlns:cc="http://creativecommons.org/ns#"
   xmlns:rdf="http://www.w3.org/1999/02/22-rdf-syntax-ns#"
   xmlns:svg="http://www.w3.org/2000/svg"
   xmlns="http://www.w3.org/2000/svg"
   xmlns:sodipodi="http://sodipodi.sourceforge.net/DTD/sodipodi-0.dtd"
   xmlns:inkscape="http://www.inkscape.org/namespaces/inkscape"
   inkscape:version="1.0 (4035a4fb49, 2020-05-01)"
   sodipodi:docname="cookie-bite-solid.svg"
   id="svg4"
   version="1.1"
   viewBox="0 0 512 512"
   role="img"
   class="svg-inline--fa fa-cookie-bite fa-w-16"
   data-icon="cookie-bite"
   data-prefix="fas"
   focusable="false"
   aria-hidden="true">
  <metadata
     id="metadata10">
    <rdf:RDF>
      <cc:Work
         rdf:about="">
        <dc:format>image/svg+xml</dc:format>
        <dc:type
           rdf:resource="http://purl.org/dc/dcmitype/StillImage" />
      </cc:Work>
    </rdf:RDF>
  </metadata>
  <defs
     id="defs8" />
  <sodipodi:namedview
     inkscape:current-layer="svg4"
     inkscape:window-maximized="1"
     inkscape:window-y="-11"
     inkscape:window-x="-11"
     inkscape:cy="253.12"
     inkscape:cx="127.68"
     inkscape:zoom="1.5625"
     showgrid="false"
     id="namedview6"
     inkscape:window-height="986"
     inkscape:window-width="1920"
     inkscape:pageshadow="2"
     inkscape:pageopacity="0"
     guidetolerance="10"
     gridtolerance="10"
     objecttolerance="10"
     borderopacity="1"
     bordercolor="#666666"
     pagecolor="#ffffff" />
  <path
     id="path2"
     d="M510.52 255.82c-69.97-.85-126.47-57.69-126.47-127.86-70.17 0-127-56.49-127.86-126.45-27.26-4.14-55.13.3-79.72 12.82l-69.13 35.22a132.221 132.221 0 0 0-57.79 57.81l-35.1 68.88a132.645 132.645 0 0 0-12.82 80.95l12.08 76.27a132.521 132.521 0 0 0 37.16 72.96l54.77 54.76a132.036 132.036 0 0 0 72.71 37.06l76.71 12.15c27.51 4.36 55.7-.11 80.53-12.76l69.13-35.21a132.273 132.273 0 0 0 57.79-57.81l35.1-68.88c12.56-24.64 17.01-52.58 12.91-79.91zM176 368c-17.67 0-32-14.33-32-32s14.33-32 32-32 32 14.33 32 32-14.33 32-32 32zm32-160c-17.67 0-32-14.33-32-32s14.33-32 32-32 32 14.33 32 32-14.33 32-32 32zm160 128c-17.67 0-32-14.33-32-32s14.33-32 32-32 32 14.33 32 32-14.33 32-32 32z"
     fill="currentColor" />
  <path
     id="path12"
     d="M 262.08,510.9855 C 248.35463,509.36652 171.49106,496.67948 165.13001,494.983 147.63935,490.3183 131.21039,481.9677 116.16,470.09228 110.23,465.41325 49.601258,405.02018 43.292066,397.5076 31.090424,382.97865 21.217116,363.71738 16.670327,345.57276 15.110973,339.34993 4.0494885,272.11103 1.302977,252.16 0.2813001,244.7384 0.42447238,227.11485 1.5727405,218.95392 3.350495,206.31914 6.8228461,193.96748 11.579057,183.36 16.942928,171.3973 53.266244,101.0711 57.105,95.216442 67.46985,79.408538 82.156256,65.140781 98.56,54.943148 102.72979,52.350933 174.99421,15.296529 182.64684,11.826661 194.4804,6.4610694 210.15638,2.3576643 224.32,0.91813472 231.65437,0.17270006 246.7624,0.40723315 253.28,1.3677022 L 256,1.7685364 v 3.1409567 c 0,14.8922439 5.53149,36.6352839 13.23394,52.0196809 6.37248,12.727978 12.91049,21.935901 22.90687,32.261296 22.20683,22.93772 50.14164,36.02541 82.41919,38.61407 l 9.44,0.75708 v 4.97718 c 0,10.32846 3.27075,27.03687 7.56027,38.6212 4.30996,11.63951 10.51236,23.02435 17.9136,32.88135 4.63256,6.16966 15.07725,17.05144 21.07459,21.95651 20.15723,16.48609 45.1569,26.54882 71.12991,28.63081 4.3551,0.3491 8.07927,0.79564 8.27593,0.99229 1.5858,1.5858 1.86318,26.45504 0.41118,36.86545 -1.24119,8.8989 -3.93095,19.64613 -7.06716,28.23759 -3.65956,10.02511 -41.96583,85.24156 -48.4422,95.11891 -10.32369,15.74502 -25.01978,30.01521 -41.41612,40.21588 -4.33718,2.69829 -73.63727,38.22705 -83.00435,42.55465 -20.70227,9.56448 -46.82956,13.91117 -68.35565,11.37206 z M 183.62044,367.33454 c 10.51713,-2.47906 19.20284,-10.3465 22.85996,-20.70634 2.11191,-5.98257 2.11191,-15.27383 0,-21.2564 -3.67746,-10.41746 -12.28434,-18.21348 -22.85996,-20.70634 -16.30392,-3.8431 -32.55175,4.98696 -38.10084,20.70634 -2.11191,5.98257 -2.11191,15.27383 0,21.2564 5.5492,15.71969 21.79659,24.54952 38.10084,20.70634 z m 192,-32 c 10.51713,-2.47906 19.20284,-10.3465 22.85996,-20.70634 2.11191,-5.98257 2.11191,-15.27383 0,-21.2564 -3.67746,-10.41746 -12.28434,-18.21348 -22.85996,-20.70634 -16.30392,-3.8431 -32.55175,4.98696 -38.10084,20.70634 -2.11191,5.98257 -2.11191,15.27383 0,21.2564 5.5492,15.71969 21.79659,24.54952 38.10084,20.70634 z m -160,-128 c 10.51713,-2.47906 19.20284,-10.3465 22.85996,-20.70634 2.11191,-5.98257 2.11191,-15.27383 0,-21.2564 -5.55902,-15.74751 -21.76775,-24.55632 -38.10084,-20.70634 -10.51713,2.47906 -19.20284,10.3465 -22.85996,20.70634 -2.11191,5.98257 -2.11191,15.27383 0,21.2564 5.5492,15.71969 21.79659,24.54952 38.10084,20.70634 z"
     style="fill:#8C8C8C;stroke-width:0.64;fill-opacity:1" />
</svg>
